<svg width="24" height="24" viewBox="0 0 24 24" fill="none" xmlns="http://www.w3.org/2000/svg">
<path d="M4.8 4H9.6C10.2365 4 10.847 4.25286 11.2971 4.70294C11.7471 5.15303 12 5.76348 12 6.4V19.6C12 20.2365 11.7471 20.847 11.2971 21.2971C10.847 21.7471 10.2365 22 9.6 22H4.8C4.16348 22 3.55303 21.7471 3.10294 21.2971C2.65286 20.847 2.4 20.2365 2.4 19.6V6.4C2.4 5.76348 2.65286 5.15303 3.10294 4.70294C3.55303 4.25286 4.16348 4 4.8 4Z" stroke="#5F2EEA" stroke-width="2" stroke-linecap="round" stroke-linejoin="round"/>
<path d="M12 7H18.4C19.0365 7 19.647 7.25286 20.0971 7.70294C20.5471 8.15303 20.8 8.76348 20.8 9.4V11" stroke="#5F2EEA" stroke-width="2" stroke-linecap="round" stroke-linejoin="round"/>
<path d="M21.6 16C21.6 16.6365 21.3471 17.247 20.8971 17.6971C20.447 18.1471 19.8365 18.4 19.2 18.4C18.5635 18.4 17.953 18.1471 17.5029 17.6971C17.0529 17.247 16.8 16.6365 16.8 16C16.8 15.3635 17.0529 14.753 17.5029 14.3029C17.953 13.8529 18.5635 13.6 19.2 13.6C19.8365 13.6 20.447 13.8529 20.8971 14.3029C21.3471 14.753 21.6 15.3635 21.6 16Z" stroke="#5F2EEA" stroke-width="2" stroke-linecap="round" stroke-linejoin="round"/>
</svg>