<svg xmlns="http://www.w3.org/2000/svg" viewBox="0 0 500 500">
  <!-- About image SVG content -->
  <style>
    .st0{fill:#F0F0F0;} .st1{fill:#FFD7D7;} .st2{fill:#FF9999;} .st3{fill:#FF6666;}
    .st4{fill:#FFFFFF;} .st5{fill:#E6E6E6;} .st6{fill:#CCCCCC;}
  </style>
  <circle class="st0" cx="250" cy="250" r="250"/>
  <path class="st1" d="M374.3,280.7c0,68.7-55.7,124.4-124.4,124.4s-124.4-55.7-124.4-124.4S181.2,156.3,250,156.3
    S374.3,212,374.3,280.7z"/>
  <path class="st2" d="M329.9,280.7c0,44.1-35.8,79.9-79.9,79.9s-79.9-35.8-79.9-79.9S205.9,200.8,250,200.8
    S329.9,236.6,329.9,280.7z"/>
  <circle class="st3" cx="250" cy="280.7" r="35.4"/>
  <circle class="st4" cx="235.4" cy="266.1" r="10.6"/>
  <path class="st5" d="M151.8,156.3c-27.5,0-49.7,22.3-49.7,49.7s22.3,49.7,49.7,49.7s49.7-22.3,49.7-49.7S179.3,156.3,151.8,156.3z
     M151.8,241.3c-19.5,0-35.4-15.8-35.4-35.4s15.8-35.4,35.4-35.4s35.4,15.8,35.4,35.4S171.3,241.3,151.8,241.3z"/>
  <path class="st6" d="M348.2,156.3c-27.5,0-49.7,22.3-49.7,49.7s22.3,49.7,49.7,49.7s49.7-22.3,49.7-49.7S375.7,156.3,348.2,156.3z
     M348.2,241.3c-19.5,0-35.4-15.8-35.4-35.4s15.8-35.4,35.4-35.4s35.4,15.8,35.4,35.4S367.7,241.3,348.2,241.3z"/>
</svg>